<svg xmlns="http://www.w3.org/2000/svg" xmlns:xlink="http://www.w3.org/1999/xlink" version="1.1" x="0px" y="0px" viewBox="0 0 1000 1000" enable-background="new 0 0 1000 1000" xml:space="preserve">
<metadata> Svg Vector Icons : http://www.onlinewebfonts.com/icon </metadata>
    <g><g transform="translate(0.000000,511.000000) scale(0.100000,-0.100000)"><path d="M1344.7,4706.7c-669-659.2-1128.1-1414.5-1232.1-2030.6c-29.4-176.6-9.8-235.4,84.4-268.8c115.8-41.2,198.1,33.3,221.7,204c19.6,145.2,133.4,472.8,231.5,669c178.5,353.1,482.6,763.2,829.9,1122.2l196.2,200.1h3317.5h3317.5l190.3-198.1c565-588.6,977-1269.3,1069.2-1765.7c39.2-202.1,109.9-274.7,231.5-231.5c129.5,45.1,129.5,172.6,3.9,553.2c-184.4,549.3-588.6,1161.4-1153.6,1740.2l-211.9,215.8H5001.6H1560.5L1344.7,4706.7z"/><path d="M4460.2,4220.1c-49.1-47.1-49.1-49-49.1-451.2v-402.2h-390.4c-215.8,0-406.1-5.9-423.8-11.8c-76.5-29.4-88.3-104-88.3-586.6v-465l56.9-56.9l56.9-56.9h394.3h394.3v-390.4c0-386.5,0-392.4,47.1-447.3l47.1-54.9h494.4h494.4l47.1,54.9c47.1,54.9,47.1,60.8,47.1,447.3v390.4h394.3h394.3l56.9,56.9l56.9,56.9v465c0,482.6-11.8,557.2-88.3,586.6c-17.7,5.9-208,11.8-423.8,11.8h-390.4v402.2c0,402.2,0,404.2-49,451.2l-47.1,49.1h-492.4h-492.4L4460.2,4220.1z M5274.4,3561v-394.3l56.9-56.9l56.9-56.9h394.3h394.4v-274.7v-274.7h-402.2c-541.5,0-500.3,41.2-500.3-496.4V1605l-274.7-2l-274.7-2v404.2c0,539.5,41.2,498.3-500.3,498.3h-402.2v274.7v274.7h394.3h394.3l56.9,56.9l56.9,56.9V3561v394.3h274.7h274.7V3561z"/><path d="M355.9,2130.7c-23.5-9.8-56.9-39.2-74.6-64.7c-27.5-43.2-31.4-353.1-29.4-3221.4c0-3031.1,2-3176.3,35.3-3254.8c47.1-102,147.1-204,249.2-249.1c74.5-35.3,259-37.3,4463.3-37.3c4204.3,0,4388.7,2,4463.3,37.3c102,45.1,202.1,147.1,247.2,249.1c35.3,76.5,37.3,213.9,37.3,2697.6c2,4222,7.9,3733.5-45.1,3796.3c-58.9,68.7-155,72.6-215.8,9.8c-43.1-41.2-43.1-54.9-54.9-733.7c-11.8-767.1-15.7-798.5-147.1-951.5c-170.7-200.1-392.4-172.7-512.1,60.8c-62.8,125.6-104,272.7-104,378.6c0,51-13.8,100.1-41.2,133.4c-35.3,45.1-55,51-153,51c-151,0-180.5-33.4-200.1-217.8c-31.4-278.6-131.5-453.2-302.1-517.9c-100-39.2-166.8-29.4-255,37.3c-102,78.5-206,335.5-206,514c0,51-13.8,100.1-41.2,133.4c-35.3,45.1-55,51-153,51c-151.1,0-180.5-33.4-200.1-217.8c-31.4-278.6-131.5-453.2-302.1-517.9c-100-39.2-166.8-29.4-255,37.3c-102,78.5-206,335.5-206,514c0,51-13.8,100.1-41.2,133.4c-35.3,45.1-54.9,51-153,51c-151.1,0-180.5-33.4-200.1-217.8c-31.4-280.5-131.5-453.2-302.1-519.9c-105.9-39.2-209.9-17.7-278.6,54.9c-94.2,102-182.4,341.4-182.4,498.3c0,51-13.8,100.1-41.2,133.4c-35.3,45.1-54.9,51-153,51c-151.1,0-180.5-33.4-200.1-217.8c-23.5-208-68.7-325.7-164.8-421.8c-262.9-262.9-543.4-64.7-594.4,417.9c-21.6,188.3-51,221.7-200.1,221.7c-151.1,0-186.4-39.2-202.1-225.6c-15.7-194.2-64.7-315.9-162.8-414c-208-208-429.6-135.4-539.5,178.5c-21.6,64.7-47.1,176.6-54.9,249.2c-19.6,176.6-51,211.9-198.2,211.9c-151.1,0-186.4-39.2-202.1-225.6c-15.7-194.2-64.7-315.9-160.9-414c-262.9-262.9-543.4-66.7-594.4,417.9c-21.6,188.3-51,221.7-200.1,221.7c-151.1,0-186.4-39.2-202.1-225.6c-15.7-194.2-64.8-315.9-162.8-414c-204-206-414-141.3-539.5,166.8c-43.2,105.9-47.1,135.4-56.9,800.5c-9.8,659.2-11.8,692.5-49,729.8C465.8,2136.6,410.8,2152.3,355.9,2130.7z M1584,276.8c60.8-90.2,166.8-174.6,298.2-235.4c149.1-68.7,343.3-68.7,482.6,0c94.2,47.1,247.2,188.3,296.2,274.7c21.6,39.2,23.5,37.3,54.9-9.8c68.7-98.1,194.2-202.1,310-257c162.8-76.5,351.2-80.4,496.4-7.9c94.2,47.1,247.2,188.3,296.2,274.7c21.6,39.2,23.5,37.3,54.9-9.8c68.7-98.1,194.2-202.1,310-257c162.8-76.5,351.2-80.4,496.4-7.9c94.2,47.1,247.2,190.3,294.3,274.7c21.6,37.3,23.5,35.3,66.7-19.6C5193.9,96.3,5386.2-7.7,5600-7.7c107.9,0,158.9,9.8,237.4,49c94.2,47.1,247.2,190.3,294.3,274.7c21.6,37.3,23.6,35.3,66.7-19.6c153-200.1,345.3-304.1,557.2-304.1c102,0,162.8,11.8,235.4,47.1c92.2,43.1,249.1,188.3,298.2,276.6c21.6,37.3,23.6,35.3,66.7-19.6c213.9-276.6,541.5-380.6,796.5-255c94.2,47.1,247.2,190.3,294.3,274.7c21.6,37.3,23.6,35.3,66.7-19.6c219.7-284.5,549.3-384.5,810.3-247.2l109.9,58.8v-2215c0-1987.4-3.9-2216.9-31.4-2244.4c-27.5-27.5-453.2-31.4-4402.5-31.4c-3949.3,0-4375,3.9-4402.5,31.4c-27.5,27.5-31.4,259-31.4,2252.3V123.7L695.3,57C807.1,2.1,846.4-7.7,966-7.7c111.8,0,162.8,9.8,243.3,51c92.2,45.1,298.2,241.3,298.2,284.5C1507.5,363.1,1538.9,343.5,1584,276.8z"/><path d="M5578.4-458.9c-125.6-17.7-290.4-74.6-402.2-143.2c-72.6-43.2-620-576.8-1294.8-1259.5c-451.2-459.1-502.2-533.6-563.1-824c-43.2-211.9-15.7-390.4,92.2-610.1c119.7-245.2,310-412,563.1-496.4c268.8-90.2,510.1-70.6,776.9,60.8c155,76.5,190.3,109.9,957.4,877c749.4,749.4,802.4,806.3,869.1,943.7c39.2,82.4,86.3,219.7,104,310c29.4,147.1,29.4,174.6,0,317.8c-45.1,229.5-127.5,392.4-274.7,537.6C6184.7-521.7,5884.5-419.7,5578.4-458.9z M6027.7-839.6c115.7-66.7,237.4-190.3,288.4-292.3c94.2-182.4,88.3-455.2-13.7-643.5c-27.5-49.1-194.2-233.5-376.7-415.9l-327.6-327.6l-486.6,486.5L4625-1545.8l331.6,325.7c419.8,415.9,484.6,453.2,778.9,443.4C5910-782.7,5943.3-790.5,6027.7-839.6z M5042.8-3074.1c-404.1-406.1-484.6-455.2-749.4-455.2c-149.1,0-180.5,5.9-298.2,64.7c-345.3,168.7-476.7,568.9-306,926c27.5,56.9,162.8,209.9,376.7,427.7l333.5,339.4l486.6-486.5l486.5-486.5L5042.8-3074.1z"/></g></g>
</svg>