<svg xmlns="http://www.w3.org/2000/svg" width="40" height="41" viewBox="0 0 40 41" fill="none">
    <path d="M9.52986 0.348362C8.65128 0.502956 7.18739 0.984268 6.39767 1.39298C3.15871 3.04618 0.825412 6.27956 0.248462 9.92207C0.0444579 11.2118 0.0444579 29.1608 0.248462 30.4506C0.630173 32.8486 1.72152 35.0105 3.4428 36.7636C4.77361 38.1354 6.10482 38.9801 7.8795 39.5887C9.45893 40.1247 9.98249 40.1699 15.2707 40.1699H19.991V32.7666V25.3638H17.551H15.1109V22.1846V19.0055H17.551H19.991V16.9709C19.991 15.8537 20.0353 14.5182 20.0799 14.0006C20.4262 10.5033 22.1387 7.88749 24.7473 6.8702C25.8299 6.45251 26.451 6.38888 29.5565 6.3795H32.4134V9.54966V12.7198L30.5766 12.7561C28.9441 12.7924 28.678 12.8198 28.2341 12.9923C27.2934 13.3737 26.7698 13.937 26.4594 14.918C26.2996 15.4087 26.2554 15.79 26.2199 17.2523L26.1845 19.0055H29.2812H32.3867L31.7655 22.1846L31.1443 25.3638H28.6776H26.202V32.776V40.1973L27.8703 40.143C29.068 40.1067 29.7426 40.0431 30.2837 39.9158C32.4931 39.3798 34.2498 38.3899 35.8293 36.764C37.4087 35.1561 38.3494 33.4213 38.9172 31.0869C39.1037 30.3331 39.1037 30.1333 39.1304 20.6228C39.1658 9.84987 39.1659 9.94083 38.5889 8.15099C37.9857 6.32525 37.1605 4.96247 35.8384 3.60908C34.108 1.838 32.0054 0.729744 29.6629 0.338982C28.4648 0.148495 10.6921 0.148495 9.52986 0.348362Z" fill="white"/>
</svg>