<svg xmlns="http://www.w3.org/2000/svg" width="41" height="41" viewBox="0 0 41 41" fill="none">
    <path d="M26.5431 20.1973C26.5431 21.4631 26.1677 22.7004 25.4645 23.7529C24.7612 24.8054 23.7617 25.6257 22.5922 26.1101C21.4228 26.5945 20.136 26.7212 18.8945 26.4743C17.653 26.2273 16.5126 25.6178 15.6176 24.7227C14.7225 23.8277 14.113 22.6873 13.866 21.4458C13.6191 20.2044 13.7458 18.9175 14.2302 17.7481C14.7146 16.5786 15.5349 15.5791 16.5874 14.8759C17.6399 14.1726 18.8773 13.7973 20.1431 13.7973C21.8399 13.7992 23.4666 14.4741 24.6664 15.6739C25.8662 16.8737 26.5411 18.5005 26.5431 20.1973ZM40.1431 11.3973V28.9973C40.1397 31.9667 38.9586 34.8135 36.8589 36.9131C34.7593 39.0128 31.9125 40.1939 28.9431 40.1973H11.3431C8.37367 40.1939 5.52686 39.0128 3.42719 36.9131C1.32751 34.8135 0.146429 31.9667 0.143066 28.9973V11.3973C0.146429 8.42787 1.32751 5.58106 3.42719 3.48138C5.52686 1.38171 8.37367 0.200629 11.3431 0.197266H28.9431C31.9125 0.200629 34.7593 1.38171 36.8589 3.48138C38.9586 5.58106 40.1397 8.42787 40.1431 11.3973ZM29.7431 20.1973C29.7431 18.2986 29.18 16.4425 28.1252 14.8638C27.0703 13.2851 25.571 12.0546 23.8168 11.328C22.0627 10.6014 20.1324 10.4113 18.2702 10.7817C16.408 11.1521 14.6974 12.0665 13.3548 13.409C12.0123 14.7516 11.0979 16.4622 10.7275 18.3244C10.3571 20.1866 10.5472 22.1169 11.2738 23.871C12.0004 25.6252 13.2309 27.1245 14.8096 28.1794C16.3883 29.2342 18.2444 29.7973 20.1431 29.7973C22.6883 29.7944 25.1284 28.782 26.9281 26.9823C28.7278 25.1826 29.7402 22.7425 29.7431 20.1973ZM32.9431 9.79727C32.9431 9.32259 32.8023 8.85858 32.5386 8.4639C32.2749 8.06922 31.9 7.7616 31.4615 7.57995C31.023 7.3983 30.5404 7.35078 30.0749 7.44338C29.6093 7.53599 29.1817 7.76456 28.846 8.10021C28.5104 8.43585 28.2818 8.86349 28.1892 9.32905C28.0966 9.7946 28.1441 10.2772 28.3258 10.7157C28.5074 11.1542 28.815 11.5291 29.2097 11.7928C29.6044 12.0565 30.0684 12.1973 30.5431 12.1973C31.1796 12.1973 31.79 11.9444 32.2401 11.4943C32.6902 11.0442 32.9431 10.4338 32.9431 9.79727Z" fill="white"/>
</svg>